<?xml version="1.0" encoding="UTF-8"?>
<!-- Generator: Adobe Illustrator 16.1.0, SVG Export Plug-In . SVG Version: 6.00 Build 0)  -->
<!DOCTYPE svg PUBLIC "-//W3C//DTD SVG 1.1//EN" "http://www.w3.org/Graphics/SVG/1.1/DTD/svg11.dtd">
<svg version="1.1" id="Layer_1" xmlns="http://www.w3.org/2000/svg" xmlns:xlink="http://www.w3.org/1999/xlink" x="0px" y="0px" width="349.891px" height="52.109px" viewBox="0 0 349.891 52.109" enable-background="new 0 0 349.891 52.109" xml:space="preserve">
<g>
	<path fill="#FFFFFF" d="M-3.045,50.831"/>
	<path fill="#FFFFFF" d="M166.246,14.066c-0.068,7.094-0.682,28.784-0.682,28.784c-0.102,4.252,1.403,6.206,5.32,6.273v1.706h-15.62   v-1.773c3.997,0,5.984-1.975,6.139-6.206l1.296-35.537c-1.159-2.796-2.319-3.751-5.456-3.889V1.653h12.072l12.55,33.421   l12.959-33.421h10.846v1.772c-3.191,0-4.835,1.224-4.707,4.639l1.296,34.514c0.19,5.089,1.14,6.479,5.185,6.479v1.773h-17.939   v-1.773c3.442,0,5.165-1.104,4.979-6.615c0,0-0.883-24.088-0.955-28.375l-8.797,23.94c-1.131,3.076-2.231,6.566-3.139,10.437   l-3.002,0.137c-0.654-2.469-2.453-7.299-2.453-7.299S168.792,20.859,166.246,14.066z"/>
	<path fill="#FFFFFF" d="M151.581,51.24c-1.065-0.257-1.92-0.273-3.001-0.273c-1.842,0-5.012,0.955-9.14,0.955   c-15.192,0-26.465-9.19-26.465-26.055c0-14.401,10.55-25.306,26.738-25.306c3.747,0,8.118,0.557,11.595,2.114   c0.648-0.712,0.923-1.119,1.637-1.909l1.296,0.067c-0.213,2.55-1.091,10.981-1.091,10.981l-1.433-0.136   c-1.027-4.914-3.593-8.05-11.8-8.05c-9.826,0-18.757,7.608-18.757,21.963c0,16.264,9.137,23.123,19.303,23.123   c6.568,0,10.545-3.578,13.096-8.321l1.705,0.613L151.581,51.24z"/>
	<path fill="#FFFFFF" d="M107.177,10.929l-1.637-0.205c-0.138-4.46-1.562-5.661-5.115-5.661h-6.821v36.694   c0,6.126,1.074,7.299,5.185,7.299v1.773H81.055v-1.773c4.04,0,5.183-1.212,5.183-7.436V5.063h-6.684   c-4.411,0-5.099,0.981-6.412,5.797l-1.637-0.136l1.16-10.505l1.296,0.205c0.341,1.229,1.432,1.229,4.16,1.229h22.781   c4.093,0,5.184,0,6.07-1.432l1.364,0.136L107.177,10.929z"/>
	<path fill="#FFFFFF" d="M57.455,52.059c-3.285,0-5.849-0.486-7.775-1.093c-1.872-0.588-3.168-1.256-4.024-1.637   c-0.796,0.934-1.5,1.979-1.5,1.979l-1.569-0.343l1.228-10.98l1.773,0.205c0.754,5.051,4.413,8.798,11.527,8.798   c5.67,0,9.413-4.71,9.413-9.753c0-4.368-1.507-6.466-7.299-10.504c-1.706-1.189-3.304-2.241-4.911-3.343   c-4.981-3.411-8.32-7.166-8.32-13.232c0-6.895,5.827-11.526,13.641-11.526c4.463,0,7.266,1.257,8.117,1.705l1.568-1.842l1.16,0.205   l-1.023,10.094l-1.568-0.205c-0.138-4.714-2.844-6.889-7.571-6.889c-4.599,0-7.844,2.34-7.844,6.957   c0,3.888,3.183,6.553,6.685,8.867c1.706,1.128,3.204,2.199,4.57,3.148c8.32,5.785,10.094,9.401,10.094,15.062   C73.825,45.89,67.459,52.059,57.455,52.059z"/>
	<path fill="#FFFFFF" d="M30.649,10.861h-1.706c-0.138-4.256-1.965-5.797-5.797-5.797H12.574v18.348h6.821   c3.5,0,4.399-1.724,4.843-4.911h1.5v13.164h-1.5c-0.489-3.414-1.3-4.91-4.911-4.91h-6.752V42.51c0,5.874,1.397,6.548,5.184,6.548   v1.773H0.024v-1.773c4.522,0,5.184-1.141,5.184-6.479V8.133c0-3.401-1.38-4.707-5.184-4.707V1.653h24.418   c4.214,0,5.098-0.24,5.729-1.637h1.637L30.649,10.861z"/>
	<path fill="#FFFFFF" d="M283.699,13.657v28.102c0,6.006,1.344,7.299,5.183,7.299v1.773h-27.759v-1.773   c2.295,0,4.092-0.793,4.092-2.113c0-0.955-0.211-2.592-0.75-4.297l-2.115-6.687h-15.483c-0.267,0.864-2.933,8.568-2.933,10.847   c0,1.862,1.931,2.25,3.547,2.25v1.773h-13.026v-1.773c2.31,0,4.299-0.279,5.799-5.048l12.072-38.4   c-0.8-1.636-1.593-2.042-3.207-2.184V1.653h10.504l12.551,40.105c1.318,4.21,2.414,6.276,4.229,7.299   c2.764-0.859,3.479-1.92,3.479-7.365V8.133c-1.936-2.965-2.277-4.707-6.275-4.707V1.653h11.937l19.849,33.49V9.565   c0-5.036-1.33-6.14-5.184-6.14V1.653H326.4v1.772c-1.775,0-3.14,0.547-3.14,2.251c0,1.172,0.527,2.45,1.093,3.684l7.434,16.232   l7.299-15.688c1.023-2.201,1.363-3.331,1.363-4.502c0-1.336-1.002-1.979-3.137-1.979V1.653h12.551v1.772   c-3.168,0-4.879,2.685-6.48,6.002l-9.549,19.78v12.755c0,5.729,1.479,7.094,5.184,7.094v1.773H321.28v-1.773   c3.639,0,5.184-1.416,5.184-7.094v-11.05L316.165,9.156c-1.941-4.101-2.787-5.197-3.887-5.729c-2.228,0.93-2.935,2.448-2.935,6.14   v36.218c0,0,0.127,2.781,0.478,6.002l-3.138,0.342L283.699,13.657z M254.369,11.202l-6.549,21.349h13.506L254.369,11.202z"/>
	<path fill="#FFFFFF" d="M225.246,32.551c0,0-1.998-0.004-3.549,0v10.163c0,5.183,1.598,6.344,5.594,6.344v1.773h-18.143v-1.773   c3.844,0,5.184-1.501,5.184-6.548V9.429c0-5.166-1.326-6.003-5.184-6.003V1.653h13.572c13.108,0,20.803,3.976,20.803,14.801   C243.523,27.607,234.348,32.551,225.246,32.551z M223.062,5.063h-1.297V29.14h2.252c7.719,0,11.731-3.5,11.731-12.552   C235.75,7.827,232.094,5.063,223.062,5.063z"/>
	<path fill="#FFFFFF" d="M143.396,41.555c-8.721,0-15.006-6.325-15.006-15.483c0-8.682,6.558-15.415,15.074-15.415   c8.38,0,14.801,6.598,14.801,15.347C158.265,34.684,151.709,41.555,143.396,41.555z M143.533,13.385   c-6.105,0-8.321,5.957-8.321,12.688c0,6.327,2.015,12.755,8.253,12.755c6.033,0,8.048-6.494,8.048-12.892   C151.512,19.478,149.091,13.385,143.533,13.385z"/>
	<path fill="#FFFFFF" d="M40.403,38.758v-1.705c2.217,0,2.729-0.733,2.729-1.363c0-0.85-0.234-1.589-0.478-2.389   c0,0-0.528-1.854-0.955-3.137h-9.071l-0.887,2.864c-0.251,0.811-0.614,1.589-0.614,2.456c0,1.011,1.094,1.567,2.456,1.567v1.705   h-9.072v-1.705c2.15,0,3.142-0.636,4.024-3.272L35.56,12.77c-0.25-1.048-0.841-1.629-2.183-1.773V9.429h7.503   c5.942,17.742,7.571,22.576,7.571,22.576c1.349,4.021,2.365,5.047,4.434,5.047v1.705H40.403z M37.128,15.908l-3.683,11.527h7.435   L37.128,15.908z"/>
</g>
</svg>