<?xml version="1.0" encoding="UTF-8" standalone="no"?>
<svg width="1392px" height="365px" viewBox="0 0 1392 365" version="1.1" xmlns="http://www.w3.org/2000/svg" xmlns:xlink="http://www.w3.org/1999/xlink" xmlns:sketch="http://www.bohemiancoding.com/sketch/ns">
    <!-- Generator: Sketch 3.2.2 (9983) - http://www.bohemiancoding.com/sketch -->
    <title>Slice 1</title>
    <desc>Created with Sketch.</desc>
    <defs></defs>
    <g id="Page-1" stroke="none" stroke-width="1" fill="none" fill-rule="evenodd" sketch:type="MSPage">
        <g id="forbes" sketch:type="MSLayerGroup" fill="#33629A">
            <path d="M345.6,363 C321.4,359.5 300.1,349.2 283.9,333.2 C270.4,319.8 261.6,305.1 255.2,284.9 C245.1,253.4 245.1,212.9 255.2,182.1 C265,152.2 286.9,126.2 313.9,112.7 C351.2,94 403.6,95.2 438.1,115.5 C469.2,133.8 488,166.3 493.2,210.6 C494.8,224.2 493.8,252.8 491.2,264.6 C480.9,313 450.9,346.7 406.9,359.5 C402.2,360.9 394.8,362.5 390.6,363.1 C381.7,364.3 354.3,364.3 345.6,363 L345.6,363 L345.6,363 Z M360.1,345.1 C343.7,337.6 332,315 326.2,279.2 C322.5,256.5 322.1,206 325.5,181.2 C330.2,146.4 340.2,125.9 355.8,119 C366.5,114.2 381.3,117.1 390.8,125.7 C411.9,144.8 422.6,199.1 418,264.1 C414.7,310.8 404.6,336.1 385.7,344.9 C378.9,347.9 366.8,348.1 360.1,345.1 L360.1,345.1 L360.1,345.1 Z M775.1,363 C765.2,362 734.9,356.9 724.3,354.5 L717,352.8 L717.6,313.7 C719,219.5 719.1,168.1 718.3,118.1 C717.4,69.1 717.2,63.9 715.3,56.7 C712.9,47.5 709.5,41.1 705.3,38.2 C703.7,37.1 699.3,35.4 695.6,34.6 C683.1,31.8 683.8,32.3 683.5,26.6 C683.3,23.3 683.7,21.2 684.5,20.5 C685.6,19.6 787.7,0.1 791,0.2 C791.9,0.2 792.1,13.3 791.6,58.2 C791.3,90.1 791.2,116.2 791.5,116.2 C791.8,116.2 795.5,114.6 799.8,112.6 C812.7,106.6 824.6,104.1 841.8,103.5 C853.3,103.1 858.6,103.4 864.5,104.6 C903,112.6 931.5,144.1 941.5,189.8 C944.1,201.7 945.1,231.3 943.3,246.1 C941.8,258.7 937.6,275.8 933.3,286.8 C916.8,328.5 881.5,355.7 834.6,362.8 C823.6,364.3 789.6,364.5 775.1,363 L775.1,363 L775.1,363 Z M795.9,345.4 C793.9,345.2 791.7,344.4 791.1,343.7 C789.4,341.6 787.5,205.9 788.7,166.2 L789.6,134.7 L797.6,132.4 C809.4,129 822.1,129.5 831.1,133.8 C849.2,142.4 861.1,163.6 867.2,198.2 C869.2,209.5 868.9,248.7 866.7,262.7 C862.1,291.8 853.7,314.3 842.1,328.9 C836.5,335.9 827.1,342.6 819.7,344.8 C815.1,346 804.9,346.3 795.9,345.4 L795.9,345.4 L795.9,345.4 Z M1062.6,362.5 C1013,353.6 977.5,318.4 965.9,266.6 C964.4,259.9 963.7,252.5 963.4,238.1 C962.8,215.3 964.7,201.2 970.5,183.6 C981.8,149.8 1002,125.9 1031.4,111.6 C1062.4,96.5 1104.9,95.5 1132.3,109.2 C1163.2,124.7 1181.4,155.6 1186,200.6 C1186.6,206.6 1187,213.8 1186.8,216.6 L1186.5,221.6 L1112.5,221.9 L1038.5,222.2 L1038.8,230.9 C1039.5,251.2 1043.8,269.1 1051.9,284.6 C1055.6,291.7 1058.5,295.5 1065.6,302.7 C1081.6,318.8 1097.5,325.1 1122.6,325.1 C1140.8,325.1 1153.9,321.5 1167.6,312.6 C1171.4,310.1 1175.3,308.1 1176.2,308.1 C1178.3,308.1 1183.1,314.3 1183.1,317 C1183.1,321.4 1168.8,335.6 1154.8,345.1 C1143.3,352.8 1125.2,359.9 1109.4,362.6 C1098.3,364.5 1073.5,364.5 1062.6,362.5 L1062.6,362.5 L1062.6,362.5 Z M1036.7,202.4 C1035.9,201.2 1037.8,183.4 1039.7,174.2 C1044.2,152 1051.3,135.9 1061.1,126 C1066.4,120.7 1068.8,119 1073.1,117.8 C1076.1,116.9 1079.4,116.2 1080.6,116.2 C1085.2,116.2 1090.6,118.6 1094.6,122.3 C1105.4,132.3 1111.6,153.7 1112.8,185.4 L1113.4,201 L1103,201.6 C1082.1,202.6 1037.3,203.2 1036.7,202.4 L1036.7,202.4 L1036.7,202.4 Z M1262.6,363.5 C1244.8,361.6 1216.4,355.4 1207,351.3 L1202.4,349.3 L1201.8,326.5 C1201.5,313.9 1201.1,297.1 1200.9,289.2 L1200.6,274.7 L1203.4,273.4 C1204.9,272.7 1208,272 1210.2,271.9 L1214.3,271.7 L1217.8,280.2 C1231.3,313.4 1247.1,331.2 1267.7,336.7 C1275.6,338.8 1290.3,338.8 1296.2,336.7 C1312.5,330.9 1321.5,318.6 1321.6,301.7 C1321.7,281.7 1310.7,272.1 1269.2,255.9 C1243.5,245.8 1234.5,240.7 1223.8,229.7 C1212.3,217.9 1206.7,204.5 1205.7,185.8 C1204.4,163.2 1211.5,144.1 1227.2,127.9 C1243,111.6 1263.5,102.7 1291.4,100.2 C1316,98 1353.7,103.2 1373.4,111.5 L1377,113 L1377.6,133.4 C1378,144.6 1378.3,159.6 1378.4,166.8 L1378.6,179.8 L1373.8,181.6 C1366.1,184.4 1365.6,184.1 1361.4,172.8 C1349.5,141.2 1335.6,126.2 1314,121.6 C1300.8,118.8 1289.8,121.8 1281.8,130.4 C1275.6,137.1 1273.1,143 1272.5,152.9 C1271.9,163.7 1273.8,169.5 1280.4,176.7 C1288.5,185.6 1301.8,193.2 1328.3,204.3 C1360.7,217.9 1376.2,229.4 1384.6,246.2 C1390.1,257.1 1391.6,265.8 1391.1,282.6 C1390.7,295.2 1390.3,297.8 1387.4,306.2 C1378.1,333.8 1357,351.9 1324.4,360.5 C1313.4,363.4 1311.8,363.5 1289.8,363.8 C1276.9,363.8 1264.8,363.7 1262.6,363.5 L1262.6,363.5 Z M1.3,357.5 C0.5,357.2 0.1,354.7 0.1,350.1 C0.1,341.8 -0.4,342.2 15.6,339.2 C27.9,336.9 32.3,334.6 37.7,327.5 C48.2,313.7 50.5,287.1 50.5,177.7 C50.5,75 48.5,53.3 37.7,37.5 C32.9,30.5 24.7,26.6 11.1,25 L0.6,23.7 L0.3,15.5 L0,7.3 L3.3,6.7 C5.1,6.4 68.7,6.2 144.6,6.4 L282.6,6.7 L283.2,10.7 C283.6,12.9 284.1,35.5 284.5,60.8 L285.2,106.9 L278.1,109.1 C267.4,112.4 267.5,112.4 262.6,99.6 C250.8,68.3 237.2,50.3 218.6,41.1 C205.8,34.8 199.9,34.1 163.7,34.1 L132.2,34.1 L131.7,39.3 C130.7,49.1 129.1,112.5 129.1,142.3 L129.1,172.1 L138.3,172 C143.4,172 153.4,171.6 160.6,171.2 C171.4,170.6 174.6,170 179.1,167.9 C190.2,162.8 197.7,151.5 202.3,133.1 L204.7,123.6 L212.9,123.3 L221.1,123 L221.1,183.1 L221.1,243.2 L212.9,242.9 L204.7,242.6 L202.4,233.1 C198,215.3 189.7,202.5 179.3,197.9 C174.5,195.8 162.7,194.6 139.8,193.9 L129,193.6 L129,216.2 C129,240.8 130.4,274.1 132.1,292.1 C134.5,317.3 140.9,331.2 152.5,336.2 C154.7,337.2 161.7,338.7 168,339.7 C174.3,340.6 180.3,341.8 181.2,342.3 C183.6,343.6 183.8,356.6 181.4,357.5 C179.6,358.2 3.1,358.2 1.3,357.5 L1.3,357.5 L1.3,357.5 Z M494.3,357.3 C493.4,356.7 493.1,354.4 493.3,349.6 L493.6,342.7 L497.1,342 C499,341.6 503.2,340.8 506.3,340.2 C516,338.4 521.5,333.1 524.7,322.8 C527.3,314.4 528.4,287.6 528.4,233.7 C528.5,167.8 527.1,152.3 520.4,143.4 C516.8,138.6 514.2,137.3 505.4,135.6 C501.1,134.8 496.5,133.9 495.3,133.6 C493.3,133.2 493.1,132.5 493.1,127.6 C493.1,122.8 493.4,122 495.3,121.2 C498.3,120 597.4,100.2 600.5,100.2 L603,100.2 L602.5,115 C602.2,123.1 601.8,134.9 601.6,141.2 L601.1,152.7 L604.7,146.2 C616.2,125.5 629.1,112.6 646.2,104.8 C655.6,100.5 661.9,99.2 673.5,99.2 C687.3,99.2 701.1,103.7 701.1,108.2 C701.1,111.2 676.8,175.4 675.5,175.9 C674.8,176.2 670.1,174.3 665,171.9 C654.3,166.8 644.2,164.2 634.5,164.3 C622.3,164.3 608.8,168.8 603.4,174.6 C601.1,177.1 601.1,177.2 600.5,213.9 C599.9,250.3 601.1,294.7 603.2,312.5 C604.9,327.7 609,335.2 617.3,338.7 C620.1,339.9 637.7,342.3 643.4,342.3 C643.8,342.3 644.1,345.8 643.9,350.1 L643.6,357.9 L569.6,358.1 C528.9,358 495,357.7 494.3,357.3 L494.3,357.3 L494.3,357.3 Z" id="path2995" sketch:type="MSShapeGroup"></path>
        </g>
    </g>
</svg>