<?xml version="1.0" encoding="UTF-8" standalone="no"?>
<svg width="300px" height="117px" viewBox="0 0 300 117" version="1.1" xmlns="http://www.w3.org/2000/svg" xmlns:xlink="http://www.w3.org/1999/xlink" xmlns:sketch="http://www.bohemiancoding.com/sketch/ns">
    <!-- Generator: Sketch 3.2.2 (9983) - http://www.bohemiancoding.com/sketch -->
    <title>Slice 1</title>
    <desc>Created with Sketch.</desc>
    <defs></defs>
    <g id="Page-1" stroke="none" stroke-width="1" fill="none" fill-rule="evenodd" sketch:type="MSPage">
        <g id="g3909" sketch:type="MSLayerGroup" transform="translate(-0.104024, -0.331774)" fill="#000000">
            <path d="M119.235969,22.81576 C119.235969,27.1632374 119.317396,27.7865599 121.721369,27.9917041 L123.046916,28.1179466 C123.294141,28.2837451 123.212504,29.0279449 122.962754,29.1515574 C120.603597,29.0699205 119.193889,29.0278397 117.536955,29.0278397 C115.880022,29.0278397 114.430863,29.0699205 111.779769,29.1515574 C111.532544,29.0278397 111.448383,28.3230907 111.779769,28.1179466 L113.271009,27.9917041 C115.632797,27.7865599 115.840571,27.1632374 115.840571,22.81576 L115.840571,4.30281781 C115.840571,3.01935201 115.840571,2.97727116 114.596556,2.97727116 L112.31893,2.97727116 C110.538384,2.97727116 108.260759,3.0586976 107.224518,4.01351199 C106.230358,4.92351029 105.81744,5.83350858 105.36244,6.86974941 C105.031054,7.11960444 104.449812,6.91183026 104.284119,6.5804436 C104.946892,4.71836616 105.567585,2.06727286 105.85952,0.410339554 C105.983133,0.326177862 106.519664,0.286832271 106.645906,0.410339554 C106.893131,1.7358862 108.260759,1.69380536 110.164917,1.69380536 L126.939394,1.69380536 C129.174939,1.69380536 129.548407,1.60964366 130.169099,0.533952039 C130.376768,0.449790347 130.831872,0.491871193 130.916034,0.657669726 C130.458405,2.35668388 130.169099,5.7100013 130.292712,6.95401631 C130.129648,7.28540297 129.424794,7.28540297 129.21702,7.03544275 C129.093302,6.00183197 128.804102,4.46851114 128.180779,4.01351199 C127.2287,3.30865782 125.655928,2.97727116 123.378303,2.97727116 L120.437904,2.97727116 C119.193889,2.97727116 119.235969,3.01935201 119.235969,4.38434945 L119.235969,22.81576 L119.235969,22.81576 Z" id="path3321" sketch:type="MSShapeGroup"></path>
            <path d="M145.676164,15.6506964 C143.687844,15.6506964 143.603683,15.7348581 143.603683,16.9762431 L143.603683,22.8149605 C143.603683,27.1650679 143.811352,27.7436795 146.131164,27.9935346 L147.333098,28.1170419 C147.580323,28.2828404 147.498686,29.0270401 147.248936,29.1532827 C145.013391,29.069121 143.603683,29.0270401 141.98883,29.0270401 C140.208284,29.0270401 138.801206,29.1112018 137.186354,29.1532827 C136.936499,29.0270401 136.854967,28.3668969 137.102192,28.1170419 L137.807046,27.9935346 C140.126753,27.5779862 140.208284,27.1650679 140.208284,22.8149605 L140.208284,7.90519071 C140.208284,3.55771331 139.918979,2.85285914 137.764965,2.68716581 L136.689274,2.60573937 C136.439419,2.44015124 136.523686,1.69311102 136.770911,1.56949854 C138.801311,1.61157938 140.20839,1.69321622 141.988935,1.69321622 C143.603788,1.69321622 145.013496,1.65113538 146.794042,1.56949854 C147.043897,1.69321622 147.125429,2.44004604 146.878204,2.60573937 L146.089188,2.68716581 C143.68795,2.93702083 143.603788,3.55771331 143.603788,7.90519071 L143.603788,12.6682165 C143.603788,13.9516823 143.68795,13.9937631 145.67627,13.9937631 L157.522028,13.9937631 C159.507718,13.9937631 159.591879,13.9516823 159.591879,12.6682165 L159.591879,7.90519071 C159.591879,3.55771331 159.507718,2.93702083 157.064399,2.68716581 L156.278013,2.60573937 C156.030788,2.44015124 156.112425,1.69311102 156.362174,1.56949854 C158.266333,1.65113538 159.676041,1.69321622 161.372425,1.69321622 C162.987278,1.69321622 164.396986,1.65113538 166.259063,1.56949854 C166.508918,1.69321622 166.59045,2.44004604 166.343225,2.60573937 L165.472678,2.68716581 C163.071439,2.93702083 162.987278,3.55771331 162.987278,7.90519071 L162.987278,22.8149605 C162.987278,27.1650679 163.071439,27.7015987 165.472678,27.9935346 L166.466838,28.1170419 C166.716693,28.2828404 166.632426,29.0270401 166.385411,29.1532827 C164.397091,29.069121 162.987383,29.0270401 161.37253,29.0270401 C159.676146,29.0270401 158.184906,29.069121 156.36228,29.1532827 C156.112425,29.0270401 156.030893,28.3668969 156.278118,28.1170419 L157.064504,27.9935346 C159.591985,27.5779862 159.591985,27.1650679 159.591985,22.8149605 L159.591985,16.9762431 C159.591985,15.7348581 159.507823,15.6506964 157.522133,15.6506964 L145.676375,15.6506964 L145.676164,15.6506964 Z" id="path3325" sketch:type="MSShapeGroup"></path>
            <path d="M176.843848,7.90599025 C176.843848,3.59796364 176.759686,2.97727116 174.316367,2.68796534 L173.653594,2.60380365 C173.406369,2.43800512 173.490531,1.69380536 173.737756,1.57019287 C175.518301,1.65161931 176.92538,1.69391056 178.624394,1.69391056 L186.41198,1.69391056 C189.060444,1.69391056 191.506393,1.69391056 192.003473,1.57019287 C192.250698,2.27241699 192.500553,5.25489695 192.663616,7.07752359 C192.500553,7.32737861 191.837779,7.40891025 191.630005,7.16168528 C191.009313,5.2128161 190.635845,3.76365697 188.481832,3.22449613 C187.611284,3.01935201 186.285738,2.97727116 184.465741,2.97727116 L181.483261,2.97727116 C180.239246,2.97727116 180.239246,3.0586976 180.239246,4.63420447 L180.239246,12.916241 C180.239246,14.0760943 180.365489,14.0760943 181.606874,14.0760943 L184.008112,14.0760943 C185.749207,14.0760943 187.032673,13.9946679 187.529753,13.8288693 C188.026833,13.6630708 188.316139,13.413321 188.523913,12.3797102 L188.855299,10.680696 C189.060444,10.4334711 189.765298,10.4334711 189.930991,10.7227769 C189.930991,11.7169369 189.765193,13.3317893 189.765193,14.9045609 C189.765193,16.3958009 189.930991,17.9712026 189.930991,18.8812009 C189.765193,19.1705067 189.060444,19.1705067 188.855299,18.9232817 L188.481832,17.3084293 C188.316033,16.5614943 188.026833,15.9408018 187.198366,15.7330276 C186.617124,15.5672291 185.622964,15.5251482 184.008112,15.5251482 L181.606874,15.5251482 C180.365489,15.5251482 180.239246,15.5672291 180.239246,16.6455507 L180.239246,22.4842681 C180.239246,24.6803623 180.365489,26.0874406 181.028262,26.7922947 C181.522712,27.2893747 182.39326,27.7443739 186.038513,27.7443739 C189.226137,27.7443739 190.428071,27.5787858 191.340699,27.1236814 C192.085004,26.708133 193.202777,25.2589739 194.281099,23.1049606 C194.570404,22.8998165 195.151646,23.0235342 195.317339,23.3942664 C195.025404,24.8460556 193.989163,28.0336797 193.450002,29.1514522 C189.723217,29.0698153 186.038513,29.0277345 182.351179,29.0277345 L178.624394,29.0277345 C176.843848,29.0277345 175.43677,29.0698153 172.993451,29.1514522 C172.743596,29.0277345 172.659434,28.3650664 172.909289,28.1178414 L174.276916,27.9915989 C176.636074,27.7864547 176.843848,27.1631322 176.843848,22.8156548 L176.843848,7.90588505 L176.843848,7.90599025 Z" id="path3329" sketch:type="MSShapeGroup"></path>
            <path d="M9.241635,59.1452064 C7.25331503,59.1452064 7.17178339,59.2266328 7.17178339,60.470753 L7.17178339,66.3094704 C7.17178339,70.6595779 7.37692752,71.2381895 9.69663415,71.4880445 L10.8985683,71.6117622 C11.1457933,71.7773503 11.0642616,72.5217605 10.8144066,72.648003 C8.57886168,72.5638413 7.17178339,72.5217605 5.55430087,72.5217605 C3.77375508,72.5217605 2.36667679,72.6059222 0.751824323,72.648003 C0.5019693,72.5217605 0.420437661,71.8616172 0.667662631,71.6117622 L1.3725168,71.4880445 C3.69222344,71.0724962 3.77375508,70.6595779 3.77375508,66.3094704 L3.77375508,51.3997007 C3.77375508,47.0522232 3.48444926,46.3473691 1.33043596,46.1816757 L0.25474433,46.1002493 C0.00488930661,45.9344508 0.0890509986,45.187621 0.336275969,45.0640085 C2.36667679,45.1060893 3.77375508,45.1875158 5.55430087,45.1875158 C7.17178339,45.1875158 8.57886168,45.1454349 10.3594075,45.0640085 C10.6092625,45.1875158 10.6907941,45.934556 10.4435692,46.1002493 L9.6545533,46.1816757 C7.25331503,46.4315308 7.17178339,47.0522232 7.17178339,51.3997007 L7.17178339,56.1627264 C7.17178339,57.4461922 7.25331503,57.4882731 9.241635,57.4882731 L21.0873932,57.4882731 C23.0730831,57.4882731 23.1572448,57.4461922 23.1572448,56.1627264 L23.1572448,51.3997007 C23.1572448,47.0522232 23.0730831,46.4315308 20.632394,46.1816757 L19.8433781,46.1002493 C19.5961532,45.9344508 19.6776848,45.187621 19.9275398,45.0640085 C21.8316981,45.1454349 23.2414065,45.1875158 24.9377906,45.1875158 C26.552643,45.1875158 27.9623514,45.1454349 29.8244288,45.0640085 C30.0742838,45.1875158 30.1558155,45.934556 29.9085905,46.1002493 L29.038043,46.1816757 C26.6368047,46.4315308 26.552643,47.0522232 26.552643,51.3997007 L26.552643,66.3094704 C26.552643,70.6595779 26.6368047,71.1961086 29.038043,71.4880445 L30.032203,71.6117622 C30.282058,71.7773503 30.1978963,72.5217605 29.9506713,72.648003 C27.9623514,72.5638413 26.552643,72.5217605 24.9377906,72.5217605 C23.2414065,72.5217605 21.7501665,72.5638413 19.9275398,72.648003 C19.6776848,72.5217605 19.5961532,71.8616172 19.8433781,71.6117622 L20.632394,71.4880445 C23.1572448,71.0724962 23.1572448,70.6595779 23.1572448,66.3094704 L23.1572448,60.470753 C23.1572448,59.226738 23.0730831,59.1452064 21.0873932,59.1452064 L9.241635,59.1452064 L9.241635,59.1452064 Z" id="path3333" sketch:type="MSShapeGroup"></path>
            <path d="M60.0566236,55.5833363 C60.0566236,53.0164047 59.9724619,48.2533789 59.2702378,47.0093639 C58.980932,46.5122839 58.233997,46.2229781 57.2003862,46.1414465 L56.1641453,46.0572848 C55.9142903,45.767979 55.998452,45.2288181 56.245677,45.0631248 C57.8210787,45.1472865 59.3517694,45.1893673 60.9666219,45.1893673 C62.7077169,45.1893673 63.8254894,45.1472865 65.3167293,45.0631248 C65.648116,45.2707938 65.6060352,45.8100598 65.398261,46.0572848 L64.404101,46.1414465 C63.3704902,46.2230833 62.5841044,46.5964456 62.3342494,47.1356064 C61.7556378,48.5006039 61.7556378,53.2636296 61.7556378,55.5833363 L61.7556378,60.2648304 C61.7556378,63.8680028 61.1743961,67.6763194 58.8546894,70.1617194 C57.0741436,72.1079585 54.010132,73.1862802 50.9461204,73.1862802 C48.087253,73.1862802 45.2310155,72.6471193 43.2006147,70.9086544 C41.0045206,69.0860277 39.9709098,66.0614669 39.9709098,61.1327478 L39.9709098,51.3594714 C39.9709098,47.0514448 39.8867481,46.3492206 37.4855098,46.1414465 L36.449269,46.0572848 C36.199414,45.8914862 36.2835757,45.1893673 36.5334307,45.0631248 C38.6032823,45.1472865 40.0103606,45.1893673 41.6672939,45.1893673 C43.3663081,45.1893673 44.7339355,45.1472865 46.7617063,45.0631248 C47.0115613,45.1893673 47.093093,45.8915914 46.845868,46.0572848 L45.851708,46.1414465 C43.4478397,46.3493258 43.3663081,47.0514448 43.3663081,51.3594714 L43.3663081,60.3042812 C43.3663081,66.9740953 45.4361597,71.3636535 51.7745871,71.3636535 C57.7789978,71.3636535 60.0566236,66.6427086 60.0566236,60.346362 L60.0566236,55.5833363 L60.0566236,55.5833363 Z" id="path3337" sketch:type="MSShapeGroup"></path>
            <path d="M78.1271909,56.8675806 C78.1271909,57.9853531 78.2508034,57.9853531 79.4948184,57.9853531 L82.311605,57.9853531 C84.0079891,57.9853531 85.3335358,57.9039266 85.8306158,57.7381281 C86.2856149,57.5723295 86.6170016,57.3646606 86.8668566,56.2863389 L87.2403241,54.6294056 C87.4454682,54.3821806 88.1503224,54.3821806 88.3160157,54.6294056 C88.3160157,55.6235656 88.1503224,57.2804989 88.1503224,58.8138197 C88.1503224,60.3050597 88.3160157,61.8778313 88.3160157,62.8325405 C88.1503224,63.0797655 87.5296299,63.0797655 87.2403241,62.8325405 L86.8247757,61.215058 C86.6170016,60.470753 86.2856149,59.8895113 85.4992291,59.6422864 C84.9206175,59.4764878 83.8843766,59.4346174 82.311605,59.4346174 L79.4948184,59.4346174 C78.2508034,59.4346174 78.1271909,59.4766982 78.1271909,60.5550199 L78.1271909,66.3095756 C78.1271909,70.6596831 78.2113526,71.2803755 80.6546717,71.4881497 L82.06175,71.6118674 C82.311605,71.7774555 82.2274433,72.5218657 81.9802184,72.6481082 C79.5342692,72.5639465 78.1271909,72.5218657 76.4702576,72.5218657 C74.6476309,72.5218657 73.2405526,72.5639465 71.2943135,72.6481082 C71.0444585,72.5218657 70.9629269,71.8617224 71.2101518,71.6118674 L72.2463927,71.4881497 C74.6476309,71.1962138 74.7317926,70.6596831 74.7317926,66.3095756 L74.7317926,51.3998059 C74.7317926,47.0523285 74.6476309,46.4710868 72.2463927,46.181781 L71.5836193,46.1003545 C71.3363944,45.934556 71.417926,45.1877262 71.665151,45.0641137 C73.406246,45.1455401 74.8133243,45.187621 76.4702576,45.187621 L84.0921508,45.187621 C86.7432441,45.187621 89.1444824,45.187621 89.6836432,45.0641137 C89.6836432,46.968272 89.723094,48.9565919 89.8072557,50.5319936 C89.6836432,50.7792186 89.1024015,50.9028311 88.8130957,50.6555009 C88.4817091,48.7907934 87.9846291,47.2601026 85.9147775,46.7209418 C85.0021491,46.4709816 83.6345216,46.4709816 81.8960567,46.4709816 L79.3712059,46.4709816 C78.1271909,46.4709816 78.1271909,46.5551433 78.1271909,48.1279149 L78.1271909,56.8675806 L78.1271909,56.8675806 Z" id="path3341" sketch:type="MSShapeGroup"></path>
            <path d="M103.010121,56.8675806 C103.010121,57.9853531 103.133734,57.9853531 104.377749,57.9853531 L107.194535,57.9853531 C108.890919,57.9853531 110.216466,57.9039266 110.713546,57.7381281 C111.168545,57.5723295 111.499932,57.3646606 111.749787,56.2863389 L112.123254,54.6294056 C112.328398,54.3821806 113.033253,54.3821806 113.198946,54.6294056 C113.198946,55.6235656 113.033253,57.2804989 113.033253,58.8138197 C113.033253,60.3050597 113.198946,61.8778313 113.198946,62.8325405 C113.033253,63.0797655 112.41256,63.0797655 112.123254,62.8325405 L111.707706,61.215058 C111.499932,60.470753 111.168545,59.8895113 110.382159,59.6422864 C109.803548,59.4764878 108.767307,59.4346174 107.194535,59.4346174 L104.377749,59.4346174 C103.133734,59.4346174 103.010121,59.4766982 103.010121,60.5550199 L103.010121,66.3095756 C103.010121,70.6596831 103.094283,71.2803755 105.537602,71.4881497 L106.94468,71.6118674 C107.194535,71.7774555 107.110374,72.5218657 106.863149,72.6481082 C104.417199,72.5639465 103.010121,72.5218657 101.353188,72.5218657 C99.5305612,72.5218657 98.1234829,72.5639465 96.1772438,72.6481082 C95.9273887,72.5218657 95.8458571,71.8617224 96.0930821,71.6118674 L97.1293229,71.4881497 C99.5305612,71.1962138 99.6147229,70.6596831 99.6147229,66.3095756 L99.6147229,51.3998059 C99.6147229,47.0523285 99.5305612,46.4710868 97.1293229,46.181781 L96.4665496,46.1003545 C96.2193246,45.934556 96.3008563,45.1877262 96.5480812,45.0641137 C98.2891762,45.1455401 99.6962545,45.187621 101.353188,45.187621 L108.975081,45.187621 C111.626174,45.187621 114.027413,45.187621 114.566573,45.0641137 C114.566573,46.968272 114.606024,48.9565919 114.690186,50.5319936 C114.566573,50.7792186 113.985332,50.9028311 113.696026,50.6555009 C113.364639,48.7907934 112.867559,47.2601026 110.797708,46.7209418 C109.885079,46.4710868 108.517452,46.4710868 106.778987,46.4710868 L104.251506,46.4710868 C103.010121,46.4710868 103.010121,46.5552485 103.010121,48.1280201 L103.010121,56.8676858 L103.010121,56.8675806 Z" id="path3345" sketch:type="MSShapeGroup"></path>
            <path d="M124.715695,51.4835888 C124.715695,47.0940306 124.631533,46.3891764 122.188214,46.1814022 L121.154603,46.0999758 C120.904748,45.9341773 120.989015,45.1873474 121.23603,45.063735 C123.308512,45.1478966 124.71559,45.1872422 126.454055,45.1872422 C128.110988,45.1872422 129.520696,45.1478966 131.590548,45.063735 C131.840403,45.1872422 131.921935,45.9342825 131.672185,46.0999758 L130.638574,46.1814022 C128.195255,46.3890712 128.111093,47.0940306 128.111093,51.4835888 L128.111093,66.2276652 C128.111093,70.6172235 128.195255,71.1958351 130.638574,71.487771 L131.672185,71.6114887 C131.92204,71.7772872 131.840508,72.524117 131.590548,72.6477295 C129.520696,72.5635678 128.110988,72.5240118 126.454055,72.5240118 C124.71559,72.5240118 123.308512,72.5635678 121.23603,72.6477295 C120.988805,72.5240118 120.904643,71.8613437 121.154603,71.6114887 L122.188214,71.487771 C124.631533,71.1958351 124.715695,70.6172235 124.715695,66.2276652 L124.715695,51.4835888 L124.715695,51.4835888 Z" id="path3349" sketch:type="MSShapeGroup"></path>
            <path d="M164.399763,65.4820558 C164.399763,66.7260708 164.399763,71.6521598 164.523271,72.7304815 C164.441844,72.9777065 164.191884,73.1854806 163.736885,73.1854806 C163.239805,72.4806265 162.037871,71.0314673 158.434698,66.9312149 L148.827115,55.9980851 C147.709343,54.7146193 144.892556,51.316591 144.022008,50.4065927 L143.940372,50.4065927 C143.774783,50.9036727 143.732703,51.8557518 143.732703,53.0997668 L143.732703,62.1287384 C143.732703,64.0749775 143.774783,69.4586957 144.477008,70.7000807 C144.726863,71.1577099 145.555329,71.4049348 146.59157,71.4864665 L147.875036,71.612709 C148.122261,71.9440957 148.082705,72.4411757 147.790874,72.6463198 C145.928797,72.5648934 144.477008,72.5228125 142.946317,72.5228125 C141.205222,72.5228125 140.087449,72.5648934 138.63829,72.6463198 C138.348984,72.4411757 138.306904,71.859934 138.556864,71.612709 L139.674636,71.4864665 C140.626715,71.3627488 141.289489,71.115629 141.497263,70.6579998 C142.075875,69.1693899 142.033794,64.1170583 142.033794,62.1287384 L142.033794,50.1567377 C142.033794,48.9995144 141.991713,48.1289669 141.123795,47.1768878 C140.542554,46.5956461 139.551024,46.3063403 138.556864,46.1827278 L137.85201,46.0985661 C137.602155,45.8513411 137.602155,45.2306486 137.933646,45.0649553 C139.674741,45.1884626 141.868206,45.1884626 142.615141,45.1884626 C143.277914,45.1884626 143.982768,45.1463817 144.519299,45.0649553 C145.347766,47.1768878 150.234404,52.6447677 151.602031,54.1754585 L155.618122,58.6912592 C158.476989,61.8788833 160.50739,64.19859 162.453629,66.1869099 L162.535266,66.1869099 C162.700854,65.979241 162.700854,65.3163624 162.700854,64.4458149 L162.700854,55.5825367 C162.700854,53.6362976 162.658774,48.2525794 161.872388,47.0111944 C161.625163,46.6377269 160.962389,46.3905019 159.305456,46.1827278 L158.600602,46.0985661 C158.311296,45.8513411 158.353377,45.1885678 158.684764,45.0649553 C160.588922,45.1463817 161.99863,45.1884626 163.571402,45.1884626 C165.351948,45.1884626 166.430269,45.1463817 167.837348,45.0649553 C168.168734,45.2700994 168.168734,45.8513411 167.921509,46.0985661 L167.340268,46.1827278 C166.014721,46.3903967 165.186254,46.7192586 165.020561,47.0532753 C164.315707,48.5418852 164.399869,53.6783785 164.399869,55.5825367 L164.399869,65.4820558 L164.399763,65.4820558 Z" id="path3353" sketch:type="MSShapeGroup"></path>
            <path d="M197.998415,68.2985689 C197.998415,69.9555022 198.24827,70.9496622 198.992575,71.238968 C199.116293,71.3626857 199.116293,71.6124355 198.950494,71.736048 C198.453414,71.736048 197.709109,71.9018465 196.920094,72.1068854 C194.72663,72.6881271 191.74415,73.1852071 189.505975,73.1852071 C184.579886,73.1852071 180.064085,71.8202097 176.873831,68.5878747 C174.391061,66.1024747 173.065514,62.8306889 173.065514,59.1854357 C173.065514,55.6664249 174.225367,52.1053333 176.792299,49.3700783 C179.567005,46.4717601 183.667257,44.5255209 189.921523,44.5255209 C192.28331,44.5255209 194.476774,44.9805201 195.181629,45.1462134 C195.968014,45.3120119 197.25148,45.6012126 197.74856,45.5196809 C197.74856,46.8873084 197.998415,49.0413217 198.371883,51.5240916 C198.248376,51.8554783 197.501335,51.8975591 197.25148,51.6503342 C196.094257,47.1766142 192.985535,45.7669059 188.76167,45.7669059 C180.726858,45.7669059 177.205217,51.4846408 177.205217,57.6968257 C177.205217,65.6474756 181.30547,71.9017413 189.632217,71.9017413 C192.199149,71.9017413 193.73247,71.3625805 194.187469,70.6577263 C194.392613,70.3684205 194.603017,69.6241155 194.603017,68.2985689 L194.603017,66.6416356 C194.603017,63.1620756 194.476774,62.9148506 191.909843,62.6229148 L190.087216,62.4177706 C189.75583,62.2519721 189.79791,61.5051423 190.087216,61.3815298 C191.28915,61.4656915 193.566776,61.5052475 196.010095,61.5052475 C197.624948,61.5052475 199.034656,61.4656915 200.399654,61.3815298 C200.691589,61.5473283 200.73104,62.1679156 200.441734,62.4177706 L199.778961,62.4991971 C198.037866,62.7068661 197.998415,63.8668246 197.998415,65.978757 L197.998415,68.2984637 L197.998415,68.2985689 Z" id="path3357" sketch:type="MSShapeGroup"></path>
            <path d="M219.899413,66.3102489 C219.899413,70.6577263 219.983574,71.2810488 222.384813,71.486193 L223.710359,71.6124355 C223.957584,71.778234 223.875947,72.5224338 223.626198,72.6460463 C221.26704,72.5646198 219.859962,72.522539 218.200398,72.522539 C216.546095,72.522539 215.096936,72.5646198 212.443213,72.6460463 C212.195988,72.522539 212.114456,71.8175796 212.443213,71.6124355 L213.937083,71.486193 C216.29624,71.2810488 216.504014,70.6577263 216.504014,66.3102489 L216.504014,47.7973067 C216.504014,46.5138409 216.504014,46.4717601 215.262629,46.4717601 L212.982374,46.4717601 C211.201828,46.4717601 208.924202,46.5531865 207.887961,47.5080009 C206.893801,48.4179992 206.480883,49.3306275 206.025884,50.3642383 C205.694497,50.6140933 205.113255,50.4063192 204.947562,50.0749325 C205.612965,48.2128551 206.233658,45.5617618 206.522964,43.9048285 C206.646471,43.8206668 207.185737,43.7811108 207.30935,43.9048285 C207.556574,45.2303751 208.924202,45.1882943 210.83099,45.1882943 L227.602837,45.1882943 C229.838382,45.1882943 230.21185,45.1041326 230.832542,44.0284409 C231.040211,43.9442792 231.495316,43.9863601 231.579477,44.1521586 C231.121848,45.8511728 230.832542,49.2044902 230.956155,50.4485052 C230.793092,50.7798919 230.088237,50.7798919 229.880463,50.5299316 C229.756746,49.4963209 229.467545,47.963 228.844222,47.5080009 C227.892143,46.8031467 226.319372,46.4717601 224.041746,46.4717601 L221.101347,46.4717601 C219.859962,46.4717601 219.899413,46.5138409 219.899413,47.8788383 L219.899413,66.3102489 L219.899413,66.3102489 Z" id="path3361" sketch:type="MSShapeGroup"></path>
            <path d="M235.894321,59.1452064 C235.894321,50.8631699 242.106506,44.5247424 250.638398,44.5247424 C260.20653,44.5247424 265.009006,51.4417815 265.009006,58.7322881 C265.009006,67.0958562 258.633758,73.1844286 250.638398,73.1844286 C241.443733,73.1844286 235.894321,66.6014063 235.894321,59.1452064 M260.869303,60.0157539 C260.869303,53.1802464 257.844742,45.8082082 249.933543,45.8082082 C245.628147,45.8082082 240.036654,48.7486074 240.036654,57.8196597 C240.036654,63.950313 243.019134,71.9009628 251.177558,71.9009628 C256.145728,71.9009628 260.869303,68.1741779 260.869303,60.0157539" id="path3365" sketch:type="MSShapeGroup"></path>
            <path d="M296.406325,65.4820558 C296.406325,66.7260708 296.406325,71.6521598 296.529832,72.7304815 C296.448406,72.9777065 296.198446,73.1854806 295.743447,73.1854806 C295.246367,72.4806265 294.044433,71.0314673 290.44126,66.9312149 L280.833782,55.9980851 C279.71601,54.7146193 276.899223,51.316591 276.028676,50.4065927 L275.947039,50.4065927 C275.781451,50.9036727 275.73937,51.8557518 275.73937,53.0997668 L275.73937,62.1287384 C275.73937,64.0749775 275.781451,69.4586957 276.483675,70.7000807 C276.73353,71.1577099 277.561996,71.4049348 278.598237,71.4864665 L279.881703,71.612709 C280.128928,71.9440957 280.086847,72.4411757 279.797541,72.6463198 C277.935464,72.5648934 276.483675,72.5228125 274.952984,72.5228125 C273.211889,72.5228125 272.094116,72.5648934 270.644957,72.6463198 C270.355651,72.4411757 270.313571,71.859934 270.563531,71.612709 L271.681303,71.4864665 C272.633382,71.3627488 273.296156,71.115629 273.50393,70.6579998 C274.082542,69.1693899 274.040461,64.1170583 274.040461,62.1287384 L274.040461,50.1567377 C274.040461,48.9995144 274.001115,48.1289669 273.130462,47.1768878 C272.549221,46.5956461 271.557691,46.3063403 270.563531,46.1827278 L269.858677,46.0985661 C269.608822,45.8513411 269.608822,45.2306486 269.940103,45.0649553 C271.681198,45.1884626 273.874662,45.1884626 274.621597,45.1884626 C275.284371,45.1884626 275.989225,45.1463817 276.525756,45.0649553 C277.354222,47.1768878 282.24086,52.6447677 283.608488,54.1754585 L287.627209,58.6912592 C290.483446,61.8788833 292.513847,64.19859 294.460086,66.1869099 L294.541513,66.1869099 C294.707311,65.979241 294.707311,65.3163624 294.707311,64.4458149 L294.707311,55.5825367 C294.707311,53.6362976 294.667755,48.2525794 293.878844,47.0111944 C293.631619,46.6377269 292.968846,46.3905019 291.311913,46.1827278 L290.607059,46.0985661 C290.317753,45.8513411 290.359834,45.1885678 290.69122,45.0649553 C292.595379,45.1463817 294.005087,45.1884626 295.577859,45.1884626 C297.358404,45.1884626 298.434096,45.1463817 299.843804,45.0649553 C300.175191,45.2700994 300.175191,45.8513411 299.927966,46.0985661 L299.346724,46.1827278 C298.021178,46.3903967 297.192711,46.7192586 297.027018,47.0532753 C296.322164,48.5418852 296.406325,53.6783785 296.406325,55.5825367 L296.406325,65.4820558 L296.406325,65.4820558 Z" id="path3369" sketch:type="MSShapeGroup"></path>
            <path d="M102.735807,109.804759 C102.735807,114.152236 102.819968,114.691397 105.468432,114.980703 L106.588834,115.106945 C106.836059,115.314614 106.754527,116.016944 106.504672,116.140556 C104.142885,116.058919 102.777887,116.016839 101.120954,116.016839 C99.3824892,116.016839 97.8912492,116.058919 96.0686226,116.140556 C95.8187676,116.016839 95.7372359,115.35417 95.9844609,115.106945 L96.8550084,114.980703 C99.2562467,114.651946 99.3404084,114.152236 99.3404084,109.804759 L99.3404084,94.5215216 C99.3404084,91.0025108 99.2562467,90.2976567 97.3941692,90.0898825 L95.9029293,89.9268192 C95.6109934,89.6769642 95.6530742,89.0562717 95.9844609,88.8905784 C98.180555,88.5986425 100.747487,88.5591917 104.184966,88.5591917 C107.622445,88.5591917 110.192007,89.0141909 112.138246,90.213495 C114.042404,91.4154291 115.452112,93.5694424 115.452112,96.4283099 C115.452112,100.236626 113.090325,102.143415 111.309779,103.013962 C109.487152,103.88188 107.291058,104.255347 105.594674,104.255347 C105.302738,104.129105 105.302738,103.508412 105.552593,103.426881 C110.026313,102.598414 111.641166,100.070933 111.641166,96.4677607 C111.641166,92.45167 109.279378,89.8426575 104.971352,89.8426575 C102.777887,89.8426575 102.735807,90.008456 102.735807,91.3338975 L102.735807,109.804759 L102.735807,109.804759 Z" id="path3373" sketch:type="MSShapeGroup"></path>
            <path d="M121.389983,102.639695 C121.389983,94.3576588 127.602168,88.0192313 136.134059,88.0192313 C145.702191,88.0192313 150.504668,94.9362704 150.504668,102.226777 C150.504668,110.590345 144.12679,116.678918 136.134059,116.678918 C126.939394,116.678918 121.389983,110.095895 121.389983,102.639695 M146.364965,103.510243 C146.364965,96.6747353 143.340404,89.3026971 135.429205,89.3026971 C131.123808,89.3026971 125.532316,92.2457263 125.532316,101.314149 C125.532316,107.444802 128.514796,115.395452 136.67322,115.395452 C141.64139,115.395452 146.364965,111.668667 146.364965,103.510243" id="path3377" sketch:type="MSShapeGroup"></path>
            <path d="M164.165962,116.679717 C160.686402,116.679717 158.492938,115.601395 157.703922,115.146396 C157.206842,114.236398 156.670311,111.295999 156.58615,109.34976 C156.793819,109.060454 157.414616,108.976292 157.58031,109.226252 C158.201002,111.338185 159.900016,115.396356 164.705123,115.396356 C168.184683,115.396356 169.881067,113.118731 169.881067,110.633331 C169.881067,108.810704 169.5076,106.780303 166.485669,104.834064 L162.55111,102.267132 C160.478628,100.899505 158.07739,98.5403476 158.07739,95.1449493 C158.07739,91.2077602 161.141401,88.0201361 166.52775,88.0201361 C167.811215,88.0201361 169.302455,88.267361 170.378147,88.5592969 C170.917308,88.7250954 171.49592,88.8065219 171.827306,88.8065219 C172.200774,89.8006819 172.574241,92.1203885 172.574241,93.8588535 C172.408653,94.1087085 171.745775,94.232321 171.538,93.985096 C170.99884,91.996776 169.881067,89.3036019 165.904427,89.3036019 C161.846256,89.3036019 160.975708,91.996776 160.975708,93.9009343 C160.975708,96.3021726 162.964028,98.0432676 164.497349,98.9953467 L167.811215,101.065198 C170.420228,102.680051 172.987159,105.083919 172.987159,109.018478 C172.987159,113.57373 169.54968,116.679822 164.165962,116.679822" id="path3381" sketch:type="MSShapeGroup"></path>
            <path d="M193.591499,109.804759 C193.591499,114.152236 193.67566,114.775559 196.076899,114.980703 L197.402445,115.106945 C197.64967,115.272744 197.568244,116.016944 197.321019,116.140556 C194.959231,116.058919 193.549523,116.016839 191.89259,116.016839 C190.238286,116.016839 188.786497,116.058919 186.138034,116.140556 C185.888179,116.016839 185.806647,115.31472 186.138034,115.106945 L187.626644,114.980703 C189.988431,114.775559 190.196206,114.152236 190.196206,109.804759 L190.196206,91.2918166 C190.196206,90.0083508 190.196206,89.96627 188.952191,89.96627 L186.674565,89.96627 C184.894019,89.96627 182.616393,90.0476964 181.580152,91.0025108 C180.585992,91.9125091 180.173074,92.8251375 179.718075,93.8587483 C179.386688,94.1086033 178.805447,93.9008291 178.639753,93.5694424 C179.302527,91.707365 179.923219,89.0562717 180.215155,87.3993384 C180.338873,87.3151767 180.877928,87.2758311 181.001541,87.3993384 C181.248766,88.724885 182.616393,88.6828042 184.520552,88.6828042 L201.295029,88.6828042 C203.533204,88.6828042 203.904041,88.5986425 204.527364,87.5229509 C204.732508,87.4387892 205.190137,87.48087 205.271669,87.6466686 C204.81667,89.3456827 204.527364,92.6990001 204.650976,93.9430151 C204.485388,94.2744018 203.780429,94.2744018 203.572655,94.0244416 C203.448937,92.9908308 203.159736,91.45751 202.539044,91.0025108 C201.584335,90.2976567 200.011563,89.96627 197.733937,89.96627 L194.793538,89.96627 C193.549523,89.96627 193.591604,90.0083508 193.591604,91.3759783 L193.591604,109.804759 L193.591499,109.804759 Z" id="path3385" sketch:type="MSShapeGroup"></path>
        </g>
    </g>
</svg>